<svg version="1.1" xmlns="http://www.w3.org/2000/svg" viewBox="0 0 492 426" width="492" height="426">
<path fill="#c4b6a0" opacity="1.000000" stroke="none" 
	d="
M0.999999,183.000000 
	C1.000000,122.347801 1.000000,61.695610 1.000000,1.021707 
	C164.946411,1.021707 328.892822,1.021707 492.919617,1.021707 
	C492.919617,142.912491 492.919617,284.825043 492.919617,426.868805 
	C329.000061,426.868805 165.000046,426.868805 1.000017,426.874329 
	C1.000000,355.563934 1.000000,284.248016 1.346913,212.571960 
	C2.343338,213.675735 3.298091,215.080795 3.593386,216.612946 
	C5.688101,227.481583 11.452607,236.117111 20.683374,241.795334 
	C27.931410,246.253922 35.960304,249.486938 43.769596,252.979828 
	C58.258526,259.460358 72.828430,265.760681 87.387184,272.084045 
	C100.395592,277.734070 113.434402,283.314056 127.067627,289.186798 
	C125.151413,290.095673 123.857666,290.782654 122.509514,291.337341 
	C110.545555,296.260071 98.526840,301.052765 86.612991,306.093506 
	C72.743202,311.961761 58.919682,317.944397 45.160526,324.067139 
	C37.588207,327.436859 29.674948,330.420959 22.831955,334.960541 
	C12.383432,341.891968 5.973574,351.614136 4.614085,364.812134 
	C3.462693,375.989929 4.828460,386.627960 10.497718,395.821014 
	C20.783949,412.500763 36.492588,421.334503 56.248207,423.434143 
	C92.597397,423.841156 128.795456,423.838806 165.456787,423.914795 
	C222.431366,423.988861 278.942657,423.991852 335.453949,423.940704 
	C336.930939,423.939362 338.407440,423.347473 340.358429,423.023254 
	C352.653595,423.461731 364.529449,422.912781 375.570068,418.675995 
	C388.564545,413.689423 401.861816,408.683441 413.558685,401.344452 
	C426.012329,393.530670 437.238434,383.426849 445.038239,370.435516 
	C449.779236,362.539062 455.014587,354.769470 458.476715,346.308197 
	C467.526001,324.192261 470.664917,301.059235 465.643677,277.520905 
	C463.203979,266.084015 460.005585,254.461517 454.893555,244.029037 
	C448.320648,230.615219 439.283203,218.593719 427.962036,208.314987 
	C417.880005,199.161285 406.760529,191.926636 394.524658,186.267670 
	C387.841949,183.177002 380.472595,182.557465 373.624786,184.518280 
	C367.279602,186.335159 361.807007,191.441330 361.945526,199.381302 
	C362.138489,210.443787 363.563721,212.181061 372.521973,216.636749 
	C380.474609,220.592255 388.085022,225.529922 395.109406,230.983505 
	C403.976044,237.867401 409.979095,247.261948 415.473816,257.054688 
	C424.387024,272.939941 429.245331,289.599976 427.034729,307.900055 
	C425.204193,323.053894 421.065582,337.414032 411.936859,349.987640 
	C405.303467,359.124237 398.139191,362.105865 385.561066,356.203766 
	C373.871124,350.718384 362.126862,345.332520 350.259796,340.245056 
	C335.368347,333.861084 320.275482,327.947998 305.364075,321.609253 
	C286.171234,313.450439 267.075287,305.063873 247.930634,296.791473 
	C242.845581,294.594208 237.735153,292.455597 232.636383,290.290070 
	C238.369400,286.585358 243.980774,284.179718 249.596786,281.784912 
	C269.598328,273.255737 289.613098,264.757416 309.599152,256.192078 
	C319.964203,251.749985 330.395508,247.436111 340.577972,242.603149 
	C347.789185,239.180435 350.803467,231.366653 348.668732,223.764206 
	C346.385925,215.634201 335.558594,208.538284 325.354004,207.944550 
	C311.802582,207.156097 301.246918,215.453888 289.305573,219.488327 
	C282.295074,221.856873 275.740570,225.551361 268.916260,228.499619 
	C256.054413,234.056183 243.152893,239.521332 230.253998,244.991745 
	C221.608521,248.658279 212.904633,252.188934 204.290054,255.926025 
	C195.728561,259.640106 187.246094,263.536346 178.635818,267.394440 
	C177.082855,266.641571 175.348267,265.707428 173.542694,264.940338 
	C161.506149,259.826599 149.429123,254.807541 137.413910,249.644455 
	C121.451920,242.785400 105.537903,235.814789 89.596474,228.907791 
	C76.560448,223.259613 63.521202,217.618744 50.468903,212.008316 
	C46.404453,210.261246 43.404556,207.952179 43.576664,202.866913 
	C43.768646,197.194489 47.382607,195.191650 52.515251,194.034515 
	C55.969383,193.612305 58.984730,193.208405 62.307854,192.863373 
	C62.819469,192.967987 63.023304,193.013733 63.412945,193.432968 
	C63.927757,193.852753 64.256760,193.939499 64.585785,193.939636 
	C125.962166,193.964981 187.338547,193.986115 248.714920,193.985718 
	C249.674210,193.985718 250.633499,193.717621 251.592789,193.574646 
	C251.565781,193.411270 251.538773,193.247910 251.511749,193.084549 
	C251.019150,193.013657 250.526566,192.942764 249.941696,192.546722 
	C245.942734,188.016205 241.634415,184.113464 238.198700,179.553253 
	C223.092621,159.503006 214.714020,137.699707 219.930206,111.916489 
	C222.865906,97.405449 228.050934,84.204857 237.685547,72.966103 
	C246.002457,63.264481 255.993347,55.433537 267.660919,50.304707 
	C279.043518,45.301136 291.079376,41.090488 303.658661,42.238190 
	C316.821075,43.439095 329.850067,45.990093 341.626282,52.983337 
	C361.403107,64.727722 374.814087,80.809166 379.061310,103.976349 
	C381.597839,117.812317 377.862946,129.854706 369.648071,140.643494 
	C364.455597,147.462860 363.328552,155.200180 366.460785,162.222534 
	C369.290619,168.566818 376.273041,171.634140 383.516510,171.828735 
	C406.516602,172.446716 429.584625,172.519577 451.785187,165.529495 
	C461.817902,162.370560 471.539734,157.834335 480.835083,152.862015 
	C486.914429,149.609985 491.821045,143.604935 490.676849,136.281250 
	C488.693787,123.588440 485.744720,119.522552 474.093597,116.098343 
	C461.047546,112.264183 448.287170,107.457916 435.404510,103.068665 
	C435.091858,102.962143 434.805328,102.780632 434.503326,102.641182 
	C424.511902,98.027985 418.032013,90.244377 413.779663,80.244896 
	C406.887024,64.036766 397.917572,49.402332 384.410400,37.496830 
	C378.126984,31.958519 371.789368,26.842236 364.854828,22.161510 
	C357.921600,17.481712 350.351471,14.417618 342.681915,11.878748 
	C328.837341,7.295770 314.618927,4.894856 299.782623,4.756742 
	C284.081238,4.610575 269.383301,7.990023 255.134506,13.560199 
	C233.577560,21.987289 216.969009,37.119301 202.952286,55.111565 
	C191.236526,70.150276 184.533478,87.343689 181.590546,106.264626 
	C179.185989,121.724167 179.524796,136.958191 182.087128,152.659088 
	C180.070450,153.712875 178.131653,154.931442 176.189209,154.937286 
	C128.194962,155.081772 80.200333,155.097839 31.895346,155.144409 
	C31.059536,155.445602 30.534149,155.739182 29.609238,156.014587 
	C16.138172,158.165497 8.146073,166.124939 3.694935,178.224960 
	C3.072133,179.917999 1.911615,181.413208 0.999999,183.000000 
M312.685516,96.772713 
	C311.056671,98.432922 309.395782,100.063080 307.804993,101.758980 
	C303.089844,106.785583 301.529510,117.562103 304.614349,123.217117 
	C307.902130,129.244324 319.860931,135.997742 328.562134,132.714249 
	C341.143585,127.966515 346.394257,112.584541 338.174255,102.762741 
	C331.440979,94.717323 322.929779,93.491936 312.685516,96.772713 
z"/>
<path fill="#212120" opacity="1.000000" stroke="none" 
	d="
M56.097073,423.024841 
	C36.492588,421.334503 20.783949,412.500763 10.497718,395.821014 
	C4.828460,386.627960 3.462693,375.989929 4.614085,364.812134 
	C5.973574,351.614136 12.383432,341.891968 22.831955,334.960541 
	C29.674948,330.420959 37.588207,327.436859 45.160526,324.067139 
	C58.919682,317.944397 72.743202,311.961761 86.612991,306.093506 
	C98.526840,301.052765 110.545555,296.260071 122.509514,291.337341 
	C123.857666,290.782654 125.151413,290.095673 127.067627,289.186798 
	C113.434402,283.314056 100.395592,277.734070 87.387184,272.084045 
	C72.828430,265.760681 58.258526,259.460358 43.769596,252.979828 
	C35.960304,249.486938 27.931410,246.253922 20.683374,241.795334 
	C11.452607,236.117111 5.688101,227.481583 3.593386,216.612946 
	C3.298091,215.080795 2.343338,213.675735 1.346913,212.105927 
	C1.000000,210.933334 1.000000,209.866653 1.381486,208.311707 
	C1.771061,206.266159 1.779150,204.708908 1.854710,202.686249 
	C1.614788,198.147232 1.307394,194.073608 1.000000,190.000000 
	C1.000000,187.958328 1.000000,185.916672 0.999999,183.437500 
	C1.911615,181.413208 3.072133,179.917999 3.694935,178.224960 
	C8.146073,166.124939 16.138172,158.165497 29.804935,156.178726 
	C30.991543,156.175903 31.582926,155.990738 32.631760,155.819244 
	C81.682114,155.864609 130.275024,155.896362 178.867920,155.927383 
	C179.367126,155.927704 179.868851,155.949295 180.365128,155.908707 
	C182.984360,155.694489 183.508255,154.433487 182.163300,152.258865 
	C179.524796,136.958191 179.185989,121.724167 181.590546,106.264626 
	C184.533478,87.343689 191.236526,70.150276 202.952286,55.111565 
	C216.969009,37.119301 233.577560,21.987289 255.134506,13.560199 
	C269.383301,7.990023 284.081238,4.610575 299.782623,4.756742 
	C314.618927,4.894856 328.837341,7.295770 342.681915,11.878748 
	C350.351471,14.417618 357.921600,17.481712 364.854828,22.161510 
	C371.789368,26.842236 378.126984,31.958519 384.410400,37.496830 
	C397.917572,49.402332 406.887024,64.036766 413.779663,80.244896 
	C418.032013,90.244377 424.511902,98.027985 434.503326,102.641182 
	C434.805328,102.780632 435.091858,102.962143 435.404510,103.068665 
	C448.287170,107.457916 461.047546,112.264183 474.093597,116.098343 
	C485.744720,119.522552 488.693787,123.588440 490.676849,136.281250 
	C491.821045,143.604935 486.914429,149.609985 480.835083,152.862015 
	C471.539734,157.834335 461.817902,162.370560 451.785187,165.529495 
	C429.584625,172.519577 406.516602,172.446716 383.516510,171.828735 
	C376.273041,171.634140 369.290619,168.566818 366.460785,162.222534 
	C363.328552,155.200180 364.455597,147.462860 369.648071,140.643494 
	C377.862946,129.854706 381.597839,117.812317 379.061310,103.976349 
	C374.814087,80.809166 361.403107,64.727722 341.626282,52.983337 
	C329.850067,45.990093 316.821075,43.439095 303.658661,42.238190 
	C291.079376,41.090488 279.043518,45.301136 267.660919,50.304707 
	C255.993347,55.433537 246.002457,63.264481 237.685547,72.966103 
	C228.050934,84.204857 222.865906,97.405449 219.930206,111.916489 
	C214.714020,137.699707 223.092621,159.503006 238.198700,179.553253 
	C241.634415,184.113464 245.942734,188.016205 249.476257,192.623077 
	C187.144455,193.036194 125.185799,193.047836 63.227142,193.059479 
	C63.023304,193.013733 62.819469,192.967987 61.967194,192.668442 
	C58.142288,192.420746 54.576939,190.232880 52.076466,194.052811 
	C47.382607,195.191650 43.768646,197.194489 43.576664,202.866913 
	C43.404556,207.952179 46.404453,210.261246 50.468903,212.008316 
	C63.521202,217.618744 76.560448,223.259613 89.596474,228.907791 
	C105.537903,235.814789 121.451920,242.785400 137.413910,249.644455 
	C149.429123,254.807541 161.506149,259.826599 173.542694,264.940338 
	C175.348267,265.707428 177.082855,266.641571 178.635818,267.394440 
	C187.246094,263.536346 195.728561,259.640106 204.290054,255.926025 
	C212.904633,252.188934 221.608521,248.658279 230.253998,244.991745 
	C243.152893,239.521332 256.054413,234.056183 268.916260,228.499619 
	C275.740570,225.551361 282.295074,221.856873 289.305573,219.488327 
	C301.246918,215.453888 311.802582,207.156097 325.354004,207.944550 
	C335.558594,208.538284 346.385925,215.634201 348.668732,223.764206 
	C350.803467,231.366653 347.789185,239.180435 340.577972,242.603149 
	C330.395508,247.436111 319.964203,251.749985 309.599152,256.192078 
	C289.613098,264.757416 269.598328,273.255737 249.596786,281.784912 
	C243.980774,284.179718 238.369400,286.585358 232.636383,290.290070 
	C237.735153,292.455597 242.845581,294.594208 247.930634,296.791473 
	C267.075287,305.063873 286.171234,313.450439 305.364075,321.609253 
	C320.275482,327.947998 335.368347,333.861084 350.259796,340.245056 
	C362.126862,345.332520 373.871124,350.718384 385.561066,356.203766 
	C398.139191,362.105865 405.303467,359.124237 411.936859,349.987640 
	C421.065582,337.414032 425.204193,323.053894 427.034729,307.900055 
	C429.245331,289.599976 424.387024,272.939941 415.473816,257.054688 
	C409.979095,247.261948 403.976044,237.867401 395.109406,230.983505 
	C388.085022,225.529922 380.474609,220.592255 372.521973,216.636749 
	C363.563721,212.181061 362.138489,210.443787 361.945526,199.381302 
	C361.807007,191.441330 367.279602,186.335159 373.624786,184.518280 
	C380.472595,182.557465 387.841949,183.177002 394.524658,186.267670 
	C406.760529,191.926636 417.880005,199.161285 427.962036,208.314987 
	C439.283203,218.593719 448.320648,230.615219 454.893555,244.029037 
	C460.005585,254.461517 463.203979,266.084015 465.643677,277.520905 
	C470.664917,301.059235 467.526001,324.192261 458.476715,346.308197 
	C455.014587,354.769470 449.779236,362.539062 445.038239,370.435516 
	C437.238434,383.426849 426.012329,393.530670 413.558685,401.344452 
	C401.861816,408.683441 388.564545,413.689423 375.570068,418.675995 
	C364.529449,422.912781 352.653595,423.461731 339.897125,423.021057 
	C314.130951,423.009796 289.300293,422.962189 264.469727,422.983734 
	C231.310867,423.012543 198.152054,423.095001 164.529999,423.081482 
	C128.076874,423.013947 92.086975,423.019409 56.097073,423.024841 
M282.813843,385.019836 
	C290.109894,385.346832 297.405884,385.923431 304.702057,385.926086 
	C311.163544,385.928436 316.233917,382.166382 317.218781,377.409332 
	C317.968506,373.788086 315.231232,368.546082 311.379242,366.861206 
	C301.517975,362.547791 291.631226,358.287231 281.681030,354.184082 
	C270.575653,349.604523 259.338196,345.343536 248.255783,340.710571 
	C240.947174,337.655243 233.849823,334.098572 226.588394,330.925385 
	C214.684692,325.723572 202.503830,321.099060 190.865158,315.367493 
	C183.017349,311.502808 176.209427,312.057068 168.789474,316.002228 
	C162.957260,319.103180 156.687286,321.393982 150.567413,323.937988 
	C139.374390,328.590851 128.103226,333.058044 116.946129,337.794586 
	C95.867813,346.743073 74.868027,355.876495 53.789761,364.825104 
	C47.574429,367.463776 45.143471,370.680817 46.072437,375.936188 
	C46.934166,380.811188 52.224205,384.970551 57.605263,384.991058 
	C66.435760,385.024750 75.266289,385.050690 84.767372,385.523102 
	C86.245110,385.679932 87.722778,385.973267 89.200584,385.973938 
	C147.336319,385.999786 205.472046,386.007141 263.607758,385.962921 
	C265.373688,385.961578 267.139160,385.386169 269.768921,385.018494 
	C271.211487,385.039215 272.654083,385.059967 274.701782,385.503632 
	C277.103058,385.361969 279.504303,385.220306 282.813843,385.019836 
z"/>
<path fill="#6C6D6C" opacity="1.000000" stroke="none" 
	d="
M1.000000,190.463181 
	C1.307394,194.073608 1.614788,198.147232 1.647615,202.701752 
	C1.373047,203.182648 1.000000,203.000000 1.000000,203.000000 
	C1.000000,198.975449 1.000000,194.950912 1.000000,190.463181 
z"/>
<path fill="#B6B7B7" opacity="1.000000" stroke="none" 
	d="
M1.000000,203.416656 
	C1.000000,203.000000 1.373047,203.182648 1.580143,203.167145 
	C1.779150,204.708908 1.771061,206.266159 1.381486,207.911713 
	C1.000000,206.611115 1.000000,205.222214 1.000000,203.416656 
z"/>
<path fill="#212120" opacity="1.000000" stroke="none" 
	d="
M313.028748,96.584869 
	C322.929779,93.491936 331.440979,94.717323 338.174255,102.762741 
	C346.394257,112.584541 341.143585,127.966515 328.562134,132.714249 
	C319.860931,135.997742 307.902130,129.244324 304.614349,123.217117 
	C301.529510,117.562103 303.089844,106.785583 307.804993,101.758980 
	C309.395782,100.063080 311.056671,98.432922 313.028748,96.584869 
z"/>
<path fill="#A1A1A2" opacity="1.000000" stroke="none" 
	d="
M63.412945,193.432968 
	C125.185799,193.047836 187.144455,193.036194 249.568542,192.948212 
	C250.526566,192.942764 251.019150,193.013657 251.511749,193.084549 
	C251.538773,193.247910 251.565781,193.411270 251.592789,193.574646 
	C250.633499,193.717621 249.674210,193.985718 248.714920,193.985718 
	C187.338547,193.986115 125.962166,193.964981 64.585785,193.939636 
	C64.256760,193.939499 63.927757,193.852753 63.412945,193.432968 
z"/>
<path fill="#DBDCDB" opacity="1.000000" stroke="none" 
	d="
M164.993210,423.154449 
	C198.152054,423.095001 231.310867,423.012543 264.469727,422.983734 
	C289.300293,422.962189 314.130951,423.009796 339.422852,423.028809 
	C338.407440,423.347473 336.930939,423.939362 335.453949,423.940704 
	C278.942657,423.991852 222.431366,423.988861 165.456909,423.744263 
	C164.993759,423.495483 164.993210,423.154449 164.993210,423.154449 
z"/>
<path fill="#595958" opacity="1.000000" stroke="none" 
	d="
M182.087128,152.659088 
	C183.508255,154.433487 182.984360,155.694489 180.365128,155.908707 
	C179.868851,155.949295 179.367126,155.927704 178.867920,155.927383 
	C130.275024,155.896362 81.682114,155.864609 32.632317,155.651947 
	C32.175423,155.470963 32.205769,155.136780 32.205769,155.136780 
	C80.200333,155.097839 128.194962,155.081772 176.189209,154.937286 
	C178.131653,154.931442 180.070450,153.712875 182.087128,152.659088 
z"/>
<path fill="#E2E3E3" opacity="1.000000" stroke="none" 
	d="
M164.529999,423.081482 
	C164.993210,423.154449 164.993759,423.495483 164.993637,423.665985 
	C128.795456,423.838806 92.597397,423.841156 56.248207,423.434143 
	C92.086975,423.019409 128.076874,423.013947 164.529999,423.081482 
z"/>
<path fill="#0E0E0D" opacity="1.000000" stroke="none" 
	d="
M52.515251,194.034515 
	C54.576939,190.232880 58.142288,192.420746 61.659416,192.609558 
	C58.984730,193.208405 55.969383,193.612305 52.515251,194.034515 
z"/>
<path fill="#171817" opacity="1.000000" stroke="none" 
	d="
M31.895346,155.144409 
	C32.205769,155.136780 32.175423,155.470963 32.174866,155.638275 
	C31.582926,155.990738 30.991543,156.175903 30.204460,156.196899 
	C30.534149,155.739182 31.059536,155.445602 31.895346,155.144409 
z"/>
<path fill="#c4b6a0" opacity="1.000000" stroke="none" 
	d="
M274.096649,385.080688 
	C272.654083,385.059967 271.211487,385.039215 268.878937,385.029114 
	C206.691574,385.053131 145.394196,385.066528 84.096809,385.079895 
	C75.266289,385.050690 66.435760,385.024750 57.605263,384.991058 
	C52.224205,384.970551 46.934166,380.811188 46.072437,375.936188 
	C45.143471,370.680817 47.574429,367.463776 53.789761,364.825104 
	C74.868027,355.876495 95.867813,346.743073 116.946129,337.794586 
	C128.103226,333.058044 139.374390,328.590851 150.567413,323.937988 
	C156.687286,321.393982 162.957260,319.103180 168.789474,316.002228 
	C176.209427,312.057068 183.017349,311.502808 190.865158,315.367493 
	C202.503830,321.099060 214.684692,325.723572 226.588394,330.925385 
	C233.849823,334.098572 240.947174,337.655243 248.255783,340.710571 
	C259.338196,345.343536 270.575653,349.604523 281.681030,354.184082 
	C291.631226,358.287231 301.517975,362.547791 311.379242,366.861206 
	C315.231232,368.546082 317.968506,373.788086 317.218781,377.409332 
	C316.233917,382.166382 311.163544,385.928436 304.702057,385.926086 
	C297.405884,385.923431 290.109894,385.346832 281.928528,385.031433 
	C278.727661,385.055573 276.412170,385.068115 274.096649,385.080688 
z"/>
<path fill="#2F2F2E" opacity="1.000000" stroke="none" 
	d="
M84.432091,385.301514 
	C145.394196,385.066528 206.691574,385.053131 268.446899,385.059082 
	C267.139160,385.386169 265.373688,385.961578 263.607758,385.962921 
	C205.472046,386.007141 147.336319,385.999786 89.200584,385.973938 
	C87.722778,385.973267 86.245110,385.679932 84.432091,385.301514 
z"/>
<path fill="#2F2F2E" opacity="1.000000" stroke="none" 
	d="
M274.399231,385.292175 
	C276.412170,385.068115 278.727661,385.055573 281.474365,385.060791 
	C279.504303,385.220306 277.103058,385.361969 274.399231,385.292175 
z"/>
</svg>